<svg width="25" height="26" viewBox="0 0 25 26" fill="none" xmlns="http://www.w3.org/2000/svg">
<path fill-rule="evenodd" clip-rule="evenodd" d="M25 25.5H20V16.7512C20 14.3512 18.9413 13.0122 17.0425 13.0122C14.9763 13.0122 13.75 14.4075 13.75 16.7512V25.5H8.75V9.25H13.75V11.0774C13.75 11.0774 15.3187 8.32471 18.8537 8.32471C22.39 8.32471 25 10.4826 25 14.9476V25.5ZM3.0525 6.65112C1.36625 6.65112 0 5.2737 0 3.57495C0 1.87745 1.36625 0.5 3.0525 0.5C4.7375 0.5 6.10374 1.87745 6.10374 3.57495C6.10499 5.2737 4.7375 6.65112 3.0525 6.65112ZM0 25.5H6.25V9.25H0V25.5Z" fill="#C7CFA7"/>
</svg>
