<svg width="44" height="41" viewBox="0 0 44 41" fill="none" xmlns="http://www.w3.org/2000/svg">
<path d="M30.8898 13.3755C32.2847 15.2326 33.1111 17.5409 33.1111 20.0422C33.1111 22.5436 32.2847 24.8518 30.8898 26.7089M35.3333 5.13482C39.4249 8.79695 42 14.1189 42 20.0422C42 25.9656 39.4249 31.2873 35.3333 34.9496M5.55556 13.3755H7.55822C8.78251 13.3755 9.39464 13.3755 9.96189 13.2229C10.4645 13.0877 10.9394 12.8652 11.3651 12.5657C11.8455 12.2276 12.2374 11.7574 13.0211 10.8168L18.8564 3.8144C19.8247 2.65258 20.3087 2.07167 20.7316 2.0112C21.0978 1.95884 21.466 2.09218 21.7138 2.36682C22 2.68398 22 3.44015 22 4.95251V35.1318C22 36.6442 22 37.4004 21.7138 37.7176C21.466 37.9922 21.0978 38.1256 20.7316 38.0731C20.3089 38.0127 19.8247 37.4318 18.8564 36.27L13.0211 29.2676C12.2374 28.3271 11.8455 27.8567 11.3651 27.5187C10.9394 27.2191 10.4645 26.9967 9.96189 26.8616C9.39464 26.7089 8.78251 26.7089 7.55822 26.7089H5.55556C4.311 26.7089 3.68871 26.7089 3.21336 26.4667C2.79522 26.2536 2.45527 25.9136 2.2422 25.4956C2 25.0202 2 24.3978 2 23.1533V16.9311C2 15.6864 2 15.0642 2.2422 14.5889C2.45527 14.1707 2.79522 13.8308 3.21336 13.6177C3.68871 13.3755 4.311 13.3755 5.55556 13.3755Z" stroke="#AFB792" stroke-width="4" stroke-linecap="round" stroke-linejoin="round"/>
</svg>
