<svg width="26" height="26" viewBox="0 0 26 26" fill="none" xmlns="http://www.w3.org/2000/svg">
<path fill-rule="evenodd" clip-rule="evenodd" d="M25.4116 9.05157C25.4093 9.03516 25.4054 9.02031 25.403 9.00469C25.3976 8.97422 25.3921 8.94375 25.3843 8.91484C25.3796 8.89687 25.3725 8.87969 25.3671 8.8625C25.3585 8.83594 25.3499 8.81016 25.3397 8.78438C25.3327 8.76641 25.3241 8.74844 25.3155 8.73203C25.3046 8.70703 25.2929 8.6836 25.2788 8.66094C25.2694 8.64375 25.2585 8.62734 25.2483 8.61094C25.2343 8.58828 25.2194 8.56641 25.203 8.54532C25.1913 8.52969 25.1788 8.51407 25.1663 8.49922C25.1491 8.47891 25.1311 8.45938 25.1124 8.44063C25.0983 8.42656 25.085 8.41172 25.0702 8.39922C25.0499 8.38125 25.0296 8.36407 25.0093 8.34766C24.9929 8.33516 24.9772 8.32265 24.9608 8.31094C24.9546 8.30703 24.9491 8.30156 24.9428 8.29766L13.5171 0.680469C13.1561 0.439844 12.6866 0.439844 12.3249 0.680469L0.899893 8.29766C0.893643 8.30156 0.888183 8.30703 0.881933 8.31094C0.864745 8.32265 0.849111 8.33516 0.833486 8.34766C0.812392 8.36407 0.792077 8.38125 0.772546 8.39922C0.757702 8.41172 0.743661 8.42656 0.729599 8.44063C0.710849 8.45938 0.692854 8.47891 0.676448 8.49922C0.663166 8.51407 0.650687 8.52969 0.638968 8.54532C0.623343 8.56641 0.608494 8.58828 0.594432 8.61094C0.583494 8.62734 0.573339 8.64375 0.563183 8.66094C0.549902 8.6836 0.538185 8.70703 0.526466 8.73203C0.518654 8.74844 0.510037 8.76641 0.503006 8.78438C0.492068 8.81016 0.483498 8.83594 0.474904 8.8625C0.469436 8.87969 0.463189 8.89687 0.458501 8.91484C0.450689 8.94375 0.445214 8.97422 0.439746 9.00469C0.436621 9.02031 0.432693 9.03516 0.431131 9.05157C0.424881 9.09688 0.42099 9.14375 0.42099 9.19141V16.8086C0.42099 16.8555 0.424881 16.9023 0.431131 16.9492C0.432693 16.9641 0.436621 16.9797 0.439746 16.9953C0.445214 17.0258 0.450689 17.0555 0.458501 17.0852C0.463189 17.1031 0.469436 17.1203 0.474904 17.1375C0.483498 17.1633 0.492068 17.1898 0.503006 17.2164C0.510037 17.2336 0.518654 17.2508 0.526466 17.268C0.538185 17.2922 0.549902 17.3156 0.563183 17.3398C0.573339 17.3563 0.583494 17.3727 0.594432 17.3891C0.608494 17.4117 0.623343 17.4328 0.638968 17.4539C0.650687 17.4703 0.663166 17.4859 0.676448 17.5008C0.692854 17.5203 0.710849 17.5406 0.729599 17.5586C0.743661 17.5734 0.757702 17.5875 0.772546 17.6008C0.792077 17.6187 0.812392 17.6359 0.833486 17.6523C0.849111 17.6648 0.864745 17.6773 0.881933 17.6891C0.888183 17.693 0.893643 17.6984 0.899893 17.7023L12.3249 25.3195C12.5054 25.4398 12.7132 25.5 12.921 25.5C13.1288 25.5 13.3366 25.4398 13.5171 25.3195L24.9428 17.7023C24.9491 17.6984 24.9546 17.693 24.9608 17.6891C24.9772 17.6773 24.9929 17.6648 25.0093 17.6523C25.0296 17.6359 25.0499 17.6187 25.0702 17.6008C25.085 17.5875 25.0983 17.5734 25.1124 17.5586C25.1311 17.5406 25.1491 17.5203 25.1663 17.5008C25.1788 17.4859 25.1913 17.4703 25.203 17.4539C25.2194 17.4328 25.2343 17.4117 25.2483 17.3891C25.2585 17.3727 25.2694 17.3563 25.2788 17.3398C25.2929 17.3156 25.3046 17.2922 25.3155 17.268C25.3241 17.2508 25.3327 17.2336 25.3397 17.2164C25.3499 17.1898 25.3585 17.1633 25.3671 17.1375C25.3725 17.1203 25.3796 17.1031 25.3843 17.0852C25.3921 17.0555 25.3976 17.0258 25.403 16.9953C25.4054 16.9797 25.4093 16.9641 25.4116 16.9492C25.4179 16.9023 25.421 16.8555 25.421 16.8086V9.19141C25.421 9.14375 25.4179 9.09688 25.4116 9.05157ZM13.9952 3.58203L22.4124 9.19297L18.653 11.7078L13.9952 8.59219V3.58203ZM11.8468 3.58203V8.59219L7.18973 11.7078L3.42958 9.19297L11.8468 3.58203ZM2.56943 11.2023L5.25771 13L2.56943 14.7977V11.2023ZM11.8468 22.418L3.42958 16.807L7.18973 14.293L11.8468 17.4078V22.418ZM12.921 15.5414L9.12177 13L12.921 10.4586L16.721 13L12.921 15.5414ZM13.9952 22.418V17.4078L18.653 14.293L22.4124 16.807L13.9952 22.418ZM23.2726 14.7977L20.5851 13L23.2726 11.2023V14.7977Z" fill="#C7CFA7"/>
</svg>
