<svg width="24" height="24" viewBox="0 0 24 24" fill="none" xmlns="http://www.w3.org/2000/svg">
<path d="M11.7156 0.575427C5.24531 0.575427 0 5.82074 0 12.2911C0 17.4356 3.31641 21.8067 7.92813 23.3809L8.01094 23.4051C8.59688 23.5153 8.81172 23.1536 8.81172 22.8418C8.81172 22.5637 8.80234 21.8262 8.79688 20.8504C5.53828 21.5575 4.85078 19.2786 4.85078 19.2786C4.62578 18.5559 4.16484 17.9621 3.55938 17.5723L3.54688 17.5653C2.48594 16.8387 3.62891 16.8536 3.62891 16.8536C4.4 16.9621 5.04609 17.4145 5.41719 18.0489L5.42344 18.0606C5.85625 18.8379 6.67344 19.3551 7.61172 19.3551C8.06172 19.3551 8.4836 19.2364 8.84766 19.0278L8.83516 19.034C8.89141 18.4161 9.16406 17.8707 9.57656 17.4676L9.57734 17.4668C6.97578 17.1739 4.24063 16.1661 4.24063 11.6778C4.24063 11.6567 4.23984 11.6325 4.23984 11.6082C4.23984 10.42 4.69844 9.33871 5.44844 8.53168L5.44609 8.5348C5.2875 8.11136 5.19531 7.6223 5.19531 7.11215C5.19531 6.50511 5.325 5.92777 5.55859 5.40746L5.54766 5.43402C5.54766 5.43402 6.52891 5.11996 8.76953 6.6348C9.64766 6.38402 10.6563 6.23949 11.6984 6.23949C12.7406 6.23949 13.7492 6.38402 14.7055 6.65355L14.6273 6.6348C16.8531 5.11996 17.8344 5.43402 17.8344 5.43402C18.057 5.93558 18.1867 6.51996 18.1867 7.1348C18.1867 7.63637 18.1008 8.11761 17.9422 8.56449L17.9516 8.5348C18.6961 9.34105 19.1531 10.4223 19.1531 11.6106C19.1531 11.6348 19.1531 11.6582 19.1523 11.6817V11.6778C19.1523 16.1786 16.4141 17.1692 13.807 17.4575C14.3008 17.9629 14.6055 18.6543 14.6055 19.4176C14.6055 19.4903 14.6023 19.5629 14.5969 19.6348L14.5977 19.6254C14.5977 21.1934 14.5828 22.4528 14.5828 22.8332C14.5828 23.1411 14.7875 23.5067 15.3883 23.3895C20.0977 21.8043 23.4289 17.4293 23.4289 12.2754C23.4289 5.81293 18.1898 0.574646 11.7281 0.574646C11.7234 0.574646 11.718 0.574646 11.7133 0.574646H11.7141L11.7156 0.575427Z" fill="#C7CFA7"/>
</svg>
