<svg width="26" height="26" viewBox="0 0 26 26" fill="none" xmlns="http://www.w3.org/2000/svg">
<path fill-rule="evenodd" clip-rule="evenodd" d="M12.9249 0.503967C9.53123 0.503967 9.10567 0.518352 7.77284 0.579166C6.44278 0.63983 5.5344 0.851091 4.73956 1.16002C3.91783 1.47931 3.22096 1.9066 2.52622 2.60129C1.83152 3.29603 1.40424 3.9929 1.08495 4.81463C0.776017 5.60948 0.564758 6.51786 0.504092 7.84791C0.443279 9.18076 0.428894 9.6063 0.428894 13.0001C0.428894 16.3937 0.443279 16.8193 0.504092 18.1522C0.564758 19.4822 0.776017 20.3906 1.08495 21.1854C1.40424 22.0072 1.83152 22.7041 2.52622 23.3987C3.22096 24.0934 3.91783 24.5207 4.73956 24.8401C5.5344 25.149 6.44278 25.3602 7.77284 25.4209C9.10567 25.4817 9.53123 25.496 12.9249 25.496C16.3187 25.496 16.7442 25.4817 18.077 25.4209C19.4071 25.3602 20.3155 25.149 21.1104 24.8401C21.932 24.5207 22.6289 24.0934 23.3237 23.3987C24.0184 22.7041 24.4457 22.0072 24.765 21.1854C25.0739 20.3906 25.2851 19.4822 25.3458 18.1522C25.4066 16.8193 25.421 16.3937 25.421 13.0001C25.421 9.6063 25.4066 9.18076 25.3458 7.84791C25.2851 6.51786 25.0739 5.60948 24.765 4.81463C24.4457 3.9929 24.0184 3.29603 23.3237 2.60129C22.6289 1.9066 21.932 1.47931 21.1104 1.16002C20.3155 0.851091 19.4071 0.63983 18.077 0.579166C16.7442 0.518352 16.3187 0.503967 12.9249 0.503967ZM8.7596 13.0001C8.7596 15.3005 10.6245 17.1654 12.9249 17.1654C15.2255 17.1654 17.0904 15.3005 17.0904 13.0001C17.0904 10.6995 15.2255 8.83467 12.9249 8.83467C10.6245 8.83467 8.7596 10.6995 8.7596 13.0001ZM6.50806 13.0001C6.50806 9.45605 9.38098 6.58313 12.9249 6.58313C16.4689 6.58313 19.3418 9.45605 19.3418 13.0001C19.3418 16.544 16.4689 19.4169 12.9249 19.4169C9.38098 19.4169 6.50806 16.544 6.50806 13.0001ZM19.5954 7.82912C20.4236 7.82912 21.0949 7.15779 21.0949 6.32961C21.0949 5.50143 20.4236 4.83006 19.5954 4.83006C18.7672 4.83006 18.0959 5.50143 18.0959 6.32961C18.0959 7.15779 18.7672 7.82912 19.5954 7.82912Z" fill="#C7CFA7"/>
</svg>
